<svg xmlns="http://www.w3.org/2000/svg" xmlns:xlink="http://www.w3.org/1999/xlink" width="500" zoomAndPan="magnify" viewBox="0 0 375 374.999991" height="500" preserveAspectRatio="xMidYMid meet" version="1.2"><defs><clipPath id="7aefd75574"><path d="M 55.742188 23 L 318 23 L 318 322 L 55.742188 322 Z M 55.742188 23 "/></clipPath></defs><g id="27db6a9125"><path style=" stroke:none;fill-rule:nonzero;fill:#ff3131;fill-opacity:1;" d="M -183.070312 377.535156 C -182.699219 240.992188 -109.742188 121.546875 -0.730469 55.734375 C 56.046875 21.457031 122.601562 1.703125 193.789062 1.703125 C 259.859375 1.703125 321.925781 18.742188 375.929688 48.617188 C 375.929688 48.273438 375.960938 47.929688 375.960938 47.558594 C 375.960938 -91.925781 300.140625 -213.601562 187.527344 -278.785156 C 132.09375 -310.863281 67.769531 -329.332031 -0.902344 -329.332031 C -209.03125 -329.332031 -377.792969 -160.597656 -377.792969 47.53125 C -377.820312 189.648438 -299.171875 313.324219 -183.070312 377.535156 Z M -183.070312 377.535156 "/><path style=" stroke:none;fill-rule:nonzero;fill:#004aad;fill-opacity:1;" d="M 193.789062 755.453125 C 401.917969 755.453125 570.652344 586.71875 570.652344 378.5625 C 570.652344 375.820312 570.507812 373.132812 570.449219 370.386719 C 513.671875 404.664062 447.117188 424.417969 375.929688 424.417969 C 307.257812 424.417969 242.933594 405.953125 187.5 373.875 C 77.089844 309.976562 2.15625 191.761719 -0.730469 55.707031 C -109.742188 121.519531 -182.699219 240.964844 -183.070312 377.503906 C -183.070312 377.847656 -183.101562 378.191406 -183.101562 378.5625 C -183.101562 586.71875 -14.367188 755.453125 193.789062 755.453125 Z M 193.789062 755.453125 "/><path style=" stroke:none;fill-rule:nonzero;fill:#f7c839;fill-opacity:1;" d="M 375.929688 47.585938 C 375.929688 47.929688 375.902344 48.273438 375.902344 48.644531 C 375.53125 187.675781 299.828125 308.921875 187.5 373.929688 C 242.933594 406.007812 307.257812 424.476562 375.929688 424.476562 C 447.117188 424.476562 513.644531 404.722656 570.449219 370.445312 C 679.746094 304.460938 752.820312 184.585938 752.820312 47.617188 C 752.820312 -160.511719 584.085938 -329.246094 375.929688 -329.246094 C 307.257812 -329.246094 242.933594 -310.777344 187.5 -278.699219 C 300.113281 -213.574219 375.929688 -91.898438 375.929688 47.585938 Z M 375.929688 47.585938 "/><path style=" stroke:none;fill-rule:nonzero;fill:#000000;fill-opacity:1;" d="M 187.5 373.929688 C 299.828125 308.921875 375.53125 187.675781 375.902344 48.644531 C 321.898438 18.769531 259.832031 1.730469 193.761719 1.730469 C 122.574219 1.730469 56.046875 21.484375 -0.757812 55.765625 C 2.15625 191.789062 77.089844 310.035156 187.5 373.929688 Z M 187.5 373.929688 "/><g clip-rule="nonzero" clip-path="url(#7aefd75574)"><path style=" stroke:none;fill-rule:nonzero;fill:#ffffff;fill-opacity:1;" d="M 187.402344 48.796875 C 188.164062 48.796875 188.832031 49.148438 189.6875 49.789062 C 204.308594 60.875 220.527344 69.617188 237.871094 75.769531 C 254.0625 81.511719 271.851562 85.210938 290.734375 86.765625 L 290.78125 86.765625 C 292.027344 86.886719 293.003906 87.9375 293.019531 89.230469 C 293.429688 117.558594 289.457031 146.113281 281.183594 174.136719 C 266.429688 224.148438 237.386719 263.855469 194.847656 292.121094 C 188.667969 296.230469 184.507812 296.476562 178.371094 293.078125 C 122.617188 262.148438 91.195312 213.109375 82.289062 143.144531 C 80.15625 126.4375 79.457031 109.304688 80.15625 90.769531 C 80.230469 88.636719 81.832031 86.871094 83.949219 86.597656 C 104.292969 83.824219 125.875 80.382812 146.417969 71.367188 C 159.195312 65.761719 171.457031 58.910156 182.832031 51.035156 C 185.042969 49.496094 186.304688 48.796875 187.402344 48.796875 Z M 316.882812 87.738281 C 316.761719 82.957031 316.425781 77.902344 314.1875 73.453125 C 311.570312 68.261719 307.074219 64.726562 300.421875 62.640625 C 295.058594 60.964844 289.105469 60.492188 283.867188 60.066406 L 283.773438 60.066406 C 258.402344 58.027344 233.683594 49.207031 212.273438 34.558594 C 211.601562 34.101562 210.929688 33.644531 210.261719 33.171875 C 203.710938 28.632812 196.9375 23.925781 188.679688 23.53125 C 179.40625 23.074219 171.242188 28.375 164.039062 33.066406 C 163.429688 33.445312 162.835938 33.828125 162.257812 34.222656 C 145.597656 44.929688 127.429688 52.664062 108.238281 57.203125 C 99.800781 59.199219 90.753906 60.539062 79.757812 61.4375 C 69.359375 62.277344 62.046875 66.996094 58.636719 75.082031 C 56.246094 80.71875 55.925781 86.765625 55.789062 92.992188 C 55.683594 97.746094 55.667969 102.511719 55.726562 107.140625 C 56.382812 160.6875 67.605469 205.890625 89.109375 241.511719 C 97.609375 255.597656 108.191406 268.894531 120.558594 281.03125 C 132.132812 292.394531 145.292969 302.78125 159.699219 311.917969 C 167.695312 316.988281 176.375 321.632812 185.757812 321.632812 C 186.304688 321.632812 186.855469 321.621094 187.402344 321.589844 C 195.640625 321.101562 203.011719 316.988281 209.742188 312.601562 C 227.152344 301.257812 243.113281 287.019531 257.183594 270.25 C 270.921875 253.863281 282.554688 235.464844 291.722656 215.5625 C 309.464844 177.089844 318.164062 132.894531 316.882812 87.738281 "/></g><path style=" stroke:none;fill-rule:nonzero;fill:#ffffff;fill-opacity:1;" d="M 242.59375 146.84375 C 242.367188 148.277344 241.300781 149.386719 240.277344 150.410156 C 219.140625 171.546875 198.046875 192.714844 176.925781 213.855469 C 175.128906 215.652344 172.859375 217.601562 170.390625 217.039062 C 169.019531 216.71875 167.953125 215.683594 166.964844 214.691406 C 155.574219 203.285156 144.179688 191.894531 132.789062 180.488281 C 131.464844 179.164062 130.046875 177.625 130.046875 175.75 C 130.0625 173.921875 131.433594 172.414062 132.726562 171.121094 C 136.167969 167.632812 139.613281 164.160156 143.054688 160.671875 C 144.425781 159.289062 146.007812 157.808594 147.957031 157.734375 C 150.121094 157.628906 151.917969 159.273438 153.441406 160.8125 C 159.472656 166.855469 165.5 172.902344 171.53125 178.933594 C 187.507812 162.925781 203.484375 146.90625 219.460938 130.898438 C 220.832031 129.527344 222.382812 128.082031 224.320312 128.007812 C 226.449219 127.929688 228.203125 129.558594 229.710938 131.066406 C 233.042969 134.433594 236.394531 137.8125 239.746094 141.195312 C 241.285156 142.761719 242.960938 144.683594 242.59375 146.84375 Z M 273.722656 106.683594 C 273.691406 104.277344 271.863281 102.253906 269.457031 102.054688 C 269.457031 102.039062 269.445312 102.039062 269.429688 102.039062 C 240.796875 99.679688 214.160156 91.089844 190.554688 73.210938 C 187.203125 70.683594 184.738281 72.175781 181.902344 74.125 C 172.886719 80.367188 163.414062 85.652344 153.425781 90.039062 C 137.511719 97.015625 120.742188 99.738281 103.304688 102.085938 C 101.019531 102.390625 99.300781 104.277344 99.207031 106.578125 C 98.582031 121.59375 99.070312 135.773438 100.867188 149.890625 C 107.765625 204.078125 132.347656 245.394531 178.585938 271.058594 C 184.386719 274.269531 188.832031 273.964844 194.515625 270.1875 C 228.734375 247.453125 252.15625 215.835938 264.21875 174.945312 C 270.769531 152.753906 274.074219 130 273.722656 106.683594 "/></g></svg>