<svg xmlns="http://www.w3.org/2000/svg" xmlns:xlink="http://www.w3.org/1999/xlink" width="500" zoomAndPan="magnify" viewBox="0 0 375 374.999991" height="500" preserveAspectRatio="xMidYMid meet" version="1.2"><defs><clipPath id="de0bc9e718"><path d="M 191 15.710938 L 375 15.710938 L 375 241 L 191 241 Z M 191 15.710938 "/></clipPath><clipPath id="b96111f176"><path d="M 74 142 L 300 142 L 300 359.210938 L 74 359.210938 Z M 74 142 "/></clipPath><clipPath id="34a2d83f1e"><path d="M 0 15.710938 L 226 15.710938 L 226 233 L 0 233 Z M 0 15.710938 "/></clipPath></defs><g id="c5f9bb6a28"><g clip-rule="nonzero" clip-path="url(#de0bc9e718)"><path style=" stroke:none;fill-rule:nonzero;fill:#ff3131;fill-opacity:1;" d="M 191.964844 40.566406 C 201.285156 33.066406 211.648438 27.148438 222.828125 22.945312 C 235.46875 18.1875 248.796875 15.777344 262.433594 15.777344 C 277.628906 15.777344 292.367188 18.753906 306.238281 24.621094 C 319.640625 30.289062 331.675781 38.40625 342.011719 48.742188 C 352.347656 59.078125 360.464844 71.113281 366.132812 84.515625 C 372 98.386719 374.976562 113.128906 374.976562 128.324219 C 374.976562 151.789062 367.828125 174.273438 354.300781 193.347656 C 347.785156 202.535156 339.953125 210.679688 331.023438 217.554688 C 322.003906 224.496094 312.042969 230.007812 301.414062 233.929688 C 288.953125 238.53125 275.835938 240.867188 262.433594 240.867188 C 249.027344 240.867188 235.46875 238.453125 222.828125 233.699219 C 222.445312 233.554688 222.066406 233.410156 221.683594 233.261719 C 221.019531 233.003906 220.359375 232.742188 219.703125 232.472656 C 219.394531 232.34375 219.082031 232.214844 218.773438 232.082031 C 218.714844 232.0625 218.664062 232.039062 218.605469 232.011719 C 218.363281 231.914062 218.121094 231.808594 217.878906 231.699219 C 217.742188 231.644531 217.613281 231.585938 217.480469 231.53125 C 217.269531 231.441406 217.066406 231.351562 216.859375 231.257812 C 216.679688 231.179688 216.5 231.097656 216.324219 231.015625 C 216.171875 230.953125 216.023438 230.882812 215.875 230.8125 C 215.667969 230.722656 215.460938 230.628906 215.257812 230.53125 C 215.082031 230.453125 214.910156 230.371094 214.734375 230.289062 C 214.421875 230.144531 214.105469 229.996094 213.792969 229.84375 C 213.570312 229.738281 213.355469 229.632812 213.140625 229.527344 C 212.957031 229.4375 212.773438 229.351562 212.59375 229.257812 C 212.261719 229.09375 211.929688 228.929688 211.597656 228.761719 C 211.257812 228.589844 210.917969 228.414062 210.582031 228.238281 C 210.222656 228.050781 209.863281 227.863281 209.503906 227.671875 C 209.101562 227.457031 208.695312 227.238281 208.296875 227.015625 C 207.984375 226.84375 207.679688 226.675781 207.371094 226.503906 C 207.019531 226.304688 206.664062 226.101562 206.3125 225.898438 C 205.960938 225.699219 205.613281 225.496094 205.261719 225.289062 C 204.917969 225.082031 204.574219 224.878906 204.230469 224.671875 C 204.222656 224.664062 204.214844 224.664062 204.207031 224.65625 C 203.863281 224.449219 203.519531 224.238281 203.179688 224.027344 C 202.835938 223.8125 202.492188 223.597656 202.148438 223.378906 C 201.832031 223.175781 201.511719 222.976562 201.199219 222.765625 C 200.199219 222.117188 199.207031 221.453125 198.226562 220.765625 C 198.003906 220.613281 197.78125 220.457031 197.558594 220.296875 C 197.457031 220.226562 197.351562 220.152344 197.246094 220.078125 C 197.050781 219.941406 196.859375 219.800781 196.667969 219.660156 C 196.550781 219.578125 196.433594 219.492188 196.316406 219.410156 C 196.121094 219.265625 195.925781 219.121094 195.726562 218.976562 C 195.601562 218.882812 195.476562 218.792969 195.351562 218.695312 C 195.203125 218.585938 195.050781 218.472656 194.902344 218.359375 C 194.6875 218.199219 194.472656 218.039062 194.261719 217.875 C 194.183594 217.820312 194.109375 217.761719 194.039062 217.703125 C 193.816406 217.539062 193.597656 217.367188 193.378906 217.195312 C 193.28125 217.117188 193.179688 217.042969 193.082031 216.964844 C 192.796875 216.738281 192.507812 216.511719 192.222656 216.28125 C 192.136719 216.214844 192.050781 216.148438 191.96875 216.078125 C 192.007812 216.039062 192.050781 216 192.09375 215.960938 C 192.136719 215.925781 192.179688 215.886719 192.21875 215.847656 C 192.304688 215.773438 192.386719 215.691406 192.472656 215.613281 C 192.535156 215.558594 192.597656 215.503906 192.660156 215.445312 C 192.914062 215.214844 193.164062 214.980469 193.414062 214.746094 C 193.53125 214.640625 193.644531 214.53125 193.757812 214.421875 C 193.914062 214.277344 194.074219 214.128906 194.230469 213.976562 C 194.421875 213.792969 194.617188 213.609375 194.808594 213.425781 C 194.894531 213.34375 194.976562 213.261719 195.0625 213.179688 C 195.308594 212.941406 195.546875 212.703125 195.792969 212.464844 C 197.046875 211.226562 198.269531 209.960938 199.460938 208.675781 C 199.65625 208.464844 199.851562 208.253906 200.042969 208.039062 C 200.175781 207.898438 200.304688 207.75 200.433594 207.609375 C 200.648438 207.371094 200.863281 207.136719 201.074219 206.898438 C 201.132812 206.835938 201.1875 206.769531 201.246094 206.703125 C 201.46875 206.453125 201.691406 206.199219 201.910156 205.945312 C 201.996094 205.847656 202.078125 205.753906 202.164062 205.65625 C 202.351562 205.4375 202.542969 205.21875 202.726562 205 C 202.878906 204.824219 203.027344 204.644531 203.171875 204.46875 C 203.289062 204.335938 203.394531 204.203125 203.503906 204.074219 C 203.695312 203.851562 203.878906 203.628906 204.058594 203.402344 C 204.171875 203.269531 204.28125 203.132812 204.390625 203 C 204.589844 202.761719 204.78125 202.523438 204.972656 202.28125 C 205.054688 202.183594 205.132812 202.082031 205.210938 201.980469 C 205.4375 201.699219 205.664062 201.410156 205.886719 201.125 C 205.953125 201.042969 206.015625 200.960938 206.078125 200.878906 C 206.265625 200.636719 206.453125 200.394531 206.636719 200.152344 C 207.644531 198.839844 208.621094 197.503906 209.566406 196.148438 C 209.773438 195.855469 209.976562 195.5625 210.179688 195.265625 C 210.191406 195.246094 210.207031 195.226562 210.222656 195.207031 C 210.476562 194.832031 210.730469 194.453125 210.984375 194.078125 C 211.230469 193.710938 211.472656 193.339844 211.714844 192.96875 C 211.753906 192.910156 211.792969 192.851562 211.832031 192.792969 C 212.050781 192.453125 212.273438 192.109375 212.488281 191.765625 C 212.523438 191.714844 212.558594 191.664062 212.589844 191.609375 C 212.789062 191.296875 212.988281 190.980469 213.183594 190.664062 C 213.25 190.554688 213.316406 190.449219 213.382812 190.339844 C 213.558594 190.054688 213.734375 189.765625 213.90625 189.476562 C 213.964844 189.382812 214.023438 189.292969 214.078125 189.199219 C 214.292969 188.839844 214.507812 188.476562 214.71875 188.117188 C 214.730469 188.09375 214.742188 188.074219 214.753906 188.050781 C 214.988281 187.648438 215.222656 187.25 215.453125 186.84375 C 215.6875 186.433594 215.921875 186.019531 216.148438 185.601562 C 216.378906 185.1875 216.605469 184.769531 216.832031 184.355469 C 217.054688 183.933594 217.28125 183.515625 217.5 183.09375 C 224.164062 170.351562 228.390625 156.6875 230.078125 142.429688 L 230.136719 142.453125 L 230.464844 138.65625 C 230.464844 138.65625 230.46875 138.625 230.46875 138.625 L 230.65625 136.453125 L 230.636719 136.445312 C 230.820312 133.75 230.910156 131.027344 230.910156 128.324219 C 230.910156 110.703125 227.132812 93.746094 219.675781 77.929688 C 219.472656 77.492188 219.261719 77.054688 219.050781 76.617188 C 218.625 75.746094 218.1875 74.875 217.738281 74.015625 C 217.636719 73.816406 217.535156 73.621094 217.433594 73.421875 C 216.402344 71.46875 215.320312 69.539062 214.179688 67.640625 C 214.054688 67.429688 213.929688 67.226562 213.800781 67.015625 C 213.675781 66.804688 213.550781 66.601562 213.417969 66.390625 C 212.769531 65.335938 212.105469 64.292969 211.421875 63.257812 C 211.296875 63.070312 211.171875 62.886719 211.046875 62.699219 C 209.933594 61.035156 208.777344 59.398438 207.582031 57.789062 C 207.351562 57.476562 207.117188 57.167969 206.882812 56.855469 C 206.796875 56.746094 206.714844 56.640625 206.636719 56.53125 C 206.390625 56.210938 206.144531 55.894531 205.898438 55.578125 C 205.664062 55.273438 205.421875 54.972656 205.183594 54.671875 C 205.097656 54.5625 205.011719 54.457031 204.925781 54.351562 C 204.683594 54.046875 204.441406 53.746094 204.195312 53.449219 C 204.128906 53.367188 204.0625 53.285156 203.996094 53.203125 C 203.730469 52.878906 203.460938 52.554688 203.191406 52.234375 C 203.15625 52.195312 203.125 52.15625 203.089844 52.113281 C 202.789062 51.753906 202.484375 51.398438 202.179688 51.042969 C 202.179688 51.042969 202.175781 51.039062 202.171875 51.035156 C 201.933594 50.757812 201.6875 50.476562 201.441406 50.199219 C 201.339844 50.082031 201.238281 49.964844 201.136719 49.851562 C 200.910156 49.59375 200.683594 49.339844 200.453125 49.085938 C 200.332031 48.949219 200.207031 48.816406 200.085938 48.679688 C 199.785156 48.347656 199.476562 48.011719 199.167969 47.679688 C 198.863281 47.351562 198.554688 47.027344 198.246094 46.699219 C 197.964844 46.402344 197.679688 46.109375 197.394531 45.8125 C 197.289062 45.707031 197.183594 45.597656 197.078125 45.488281 C 196.816406 45.222656 196.554688 44.957031 196.292969 44.695312 C 196.253906 44.652344 196.210938 44.609375 196.167969 44.570312 C 195.839844 44.242188 195.507812 43.910156 195.175781 43.585938 C 195.171875 43.582031 195.164062 43.578125 195.160156 43.574219 C 194.871094 43.292969 194.585938 43.015625 194.296875 42.738281 C 194.097656 42.546875 193.894531 42.355469 193.695312 42.167969 C 193.5625 42.042969 193.4375 41.921875 193.308594 41.804688 C 193.175781 41.679688 193.042969 41.558594 192.914062 41.4375 C 192.90625 41.429688 192.90625 41.425781 192.898438 41.421875 C 192.601562 41.148438 192.304688 40.875 192.003906 40.601562 C 191.992188 40.589844 191.976562 40.578125 191.964844 40.566406 Z M 191.964844 40.566406 "/></g><g clip-rule="nonzero" clip-path="url(#b96111f176)"><path style=" stroke:none;fill-rule:nonzero;fill:#f7c839;fill-opacity:1;" d="M 74.859375 246.667969 C 74.859375 243.386719 75.003906 240.078125 75.28125 236.832031 C 77.140625 215.375 85.09375 195.007812 98.28125 177.933594 C 99.546875 176.296875 100.847656 174.699219 102.195312 173.140625 C 102.332031 172.984375 102.464844 172.824219 102.601562 172.667969 C 103.28125 171.886719 103.976562 171.117188 104.679688 170.355469 C 104.898438 170.117188 105.125 169.875 105.351562 169.636719 C 105.574219 169.390625 105.800781 169.15625 106.03125 168.917969 C 107.65625 167.210938 109.339844 165.558594 111.066406 163.960938 C 111.265625 163.777344 111.46875 163.589844 111.667969 163.40625 C 111.945312 163.15625 112.226562 162.90625 112.503906 162.65625 C 112.6875 162.492188 112.871094 162.328125 113.054688 162.164062 C 113.238281 162.007812 113.417969 161.847656 113.601562 161.691406 C 113.761719 161.550781 113.925781 161.410156 114.089844 161.265625 C 114.546875 160.871094 115.011719 160.480469 115.476562 160.09375 C 115.695312 159.910156 115.914062 159.730469 116.132812 159.550781 C 116.285156 159.425781 116.4375 159.300781 116.59375 159.175781 C 116.742188 159.054688 116.890625 158.933594 117.039062 158.816406 C 117.304688 158.605469 117.566406 158.394531 117.832031 158.1875 C 118.074219 157.996094 118.316406 157.804688 118.558594 157.617188 C 119.292969 157.050781 120.027344 156.496094 120.773438 155.949219 C 120.953125 155.816406 121.132812 155.683594 121.3125 155.550781 C 122.378906 154.777344 123.457031 154.019531 124.550781 153.285156 C 124.804688 153.113281 125.058594 152.945312 125.3125 152.777344 C 125.539062 152.625 125.769531 152.476562 125.996094 152.328125 C 126.304688 152.125 126.621094 151.921875 126.933594 151.722656 C 127.167969 151.574219 127.40625 151.421875 127.640625 151.277344 C 127.816406 151.164062 127.992188 151.054688 128.171875 150.945312 C 128.351562 150.832031 128.53125 150.722656 128.710938 150.613281 C 128.875 150.511719 129.042969 150.410156 129.210938 150.308594 C 129.488281 150.144531 129.761719 149.976562 130.039062 149.8125 C 130.292969 149.660156 130.546875 149.511719 130.800781 149.363281 C 132.398438 148.433594 134.019531 147.542969 135.664062 146.691406 C 135.9375 146.550781 136.210938 146.410156 136.488281 146.269531 C 136.988281 146.015625 137.492188 145.761719 137.996094 145.515625 C 138.351562 145.34375 138.707031 145.171875 139.0625 145 C 139.3125 144.882812 139.566406 144.765625 139.816406 144.648438 C 140.097656 144.515625 140.375 144.386719 140.660156 144.257812 C 140.914062 144.140625 141.164062 144.027344 141.421875 143.914062 C 141.503906 143.875 141.585938 143.839844 141.667969 143.804688 C 141.894531 143.703125 142.125 143.601562 142.351562 143.503906 C 142.625 143.382812 142.894531 143.265625 143.164062 143.152344 C 143.210938 143.128906 143.253906 143.109375 143.300781 143.09375 C 143.554688 142.984375 143.808594 142.878906 144.058594 142.773438 C 144.34375 142.652344 144.632812 142.535156 144.917969 142.417969 C 144.945312 142.667969 144.976562 142.917969 145.011719 143.167969 C 145.019531 143.253906 145.03125 143.339844 145.039062 143.421875 C 145.0625 143.585938 145.082031 143.753906 145.105469 143.917969 C 145.109375 143.964844 145.117188 144.007812 145.125 144.054688 L 145.128906 144.101562 C 145.132812 144.113281 145.132812 144.125 145.132812 144.132812 C 145.152344 144.289062 145.175781 144.445312 145.195312 144.601562 C 145.234375 144.875 145.273438 145.144531 145.3125 145.414062 C 145.359375 145.746094 145.410156 146.078125 145.460938 146.410156 C 145.523438 146.835938 145.59375 147.261719 145.660156 147.683594 C 145.664062 147.710938 145.667969 147.738281 145.675781 147.769531 C 145.746094 148.195312 145.820312 148.625 145.894531 149.054688 C 145.960938 149.429688 146.027344 149.804688 146.097656 150.179688 C 146.121094 150.308594 146.144531 150.441406 146.171875 150.570312 C 146.242188 150.941406 146.316406 151.3125 146.386719 151.683594 C 146.5625 152.554688 146.746094 153.425781 146.941406 154.292969 C 147.039062 154.726562 147.136719 155.160156 147.238281 155.59375 C 147.339844 156.027344 147.445312 156.457031 147.554688 156.890625 C 147.660156 157.320312 147.769531 157.75 147.878906 158.179688 C 147.988281 158.609375 148.105469 159.039062 148.222656 159.46875 C 148.316406 159.808594 148.40625 160.148438 148.503906 160.488281 C 148.589844 160.789062 148.671875 161.089844 148.761719 161.394531 C 148.824219 161.605469 148.886719 161.820312 148.949219 162.03125 C 149.066406 162.433594 149.191406 162.835938 149.3125 163.238281 C 149.429688 163.609375 149.546875 163.980469 149.664062 164.351562 C 149.71875 164.515625 149.769531 164.679688 149.824219 164.839844 C 149.941406 165.210938 150.066406 165.582031 150.1875 165.953125 C 150.316406 166.335938 150.449219 166.722656 150.582031 167.105469 C 150.722656 167.511719 150.863281 167.917969 151.011719 168.324219 C 151.019531 168.34375 151.027344 168.363281 151.03125 168.386719 C 151.183594 168.796875 151.332031 169.207031 151.488281 169.613281 C 151.640625 170.03125 151.800781 170.449219 151.960938 170.863281 C 152.117188 171.277344 152.28125 171.691406 152.445312 172.105469 C 152.609375 172.511719 152.773438 172.917969 152.9375 173.320312 C 152.949219 173.339844 152.953125 173.355469 152.960938 173.375 C 153.125 173.777344 153.292969 174.175781 153.46875 174.578125 C 153.640625 174.988281 153.816406 175.394531 153.996094 175.804688 C 154 175.808594 154 175.8125 154 175.816406 C 154.152344 176.152344 154.300781 176.496094 154.453125 176.832031 C 154.5 176.9375 154.546875 177.042969 154.59375 177.144531 C 154.742188 177.46875 154.890625 177.792969 155.039062 178.113281 C 155.097656 178.234375 155.152344 178.351562 155.207031 178.472656 C 155.363281 178.800781 155.519531 179.132812 155.675781 179.457031 C 155.871094 179.863281 156.066406 180.261719 156.261719 180.664062 C 156.265625 180.664062 156.265625 180.664062 156.265625 180.667969 C 156.4375 181.019531 156.613281 181.371094 156.792969 181.71875 C 156.84375 181.820312 156.894531 181.917969 156.945312 182.015625 C 157.121094 182.367188 157.304688 182.71875 157.484375 183.066406 C 164.015625 195.558594 172.613281 206.660156 183.070312 216.109375 L 183.035156 216.140625 L 185.617188 218.347656 L 187.5 219.957031 L 187.519531 219.941406 C 197.523438 228.136719 208.707031 234.585938 220.785156 239.128906 C 234.082031 244.128906 248.097656 246.667969 262.433594 246.667969 C 262.875 246.667969 263.3125 246.664062 263.753906 246.660156 C 264.175781 246.65625 264.59375 246.648438 265.019531 246.636719 C 265.355469 246.632812 265.691406 246.625 266.027344 246.613281 C 266.359375 246.601562 266.6875 246.59375 267.015625 246.578125 C 267.125 246.578125 267.230469 246.574219 267.339844 246.566406 C 267.644531 246.554688 267.949219 246.542969 268.257812 246.527344 C 268.375 246.519531 268.496094 246.515625 268.613281 246.507812 C 268.816406 246.5 269.019531 246.484375 269.222656 246.472656 C 269.542969 246.457031 269.863281 246.4375 270.183594 246.414062 C 270.265625 246.410156 270.351562 246.410156 270.429688 246.398438 C 270.726562 246.382812 271.019531 246.363281 271.3125 246.335938 C 271.488281 246.328125 271.660156 246.3125 271.828125 246.300781 C 271.976562 246.289062 272.121094 246.277344 272.269531 246.261719 C 272.566406 246.242188 272.863281 246.214844 273.164062 246.1875 C 273.558594 246.152344 273.953125 246.117188 274.347656 246.074219 C 275.136719 245.996094 275.921875 245.910156 276.707031 245.816406 C 276.980469 245.785156 277.257812 245.75 277.527344 245.714844 C 277.675781 245.695312 277.824219 245.675781 277.972656 245.65625 C 278.144531 245.632812 278.3125 245.613281 278.480469 245.585938 C 278.773438 245.550781 279.066406 245.507812 279.355469 245.464844 C 279.683594 245.421875 280.003906 245.375 280.328125 245.324219 C 280.597656 245.285156 280.871094 245.242188 281.140625 245.195312 C 281.347656 245.164062 281.550781 245.128906 281.753906 245.097656 C 281.945312 245.066406 282.132812 245.039062 282.320312 245.003906 C 282.484375 244.976562 282.648438 244.945312 282.8125 244.917969 C 283.058594 244.878906 283.308594 244.832031 283.554688 244.785156 C 283.75 244.753906 283.945312 244.71875 284.140625 244.679688 C 284.363281 244.640625 284.585938 244.597656 284.804688 244.554688 C 285.179688 244.484375 285.550781 244.414062 285.925781 244.335938 C 286.328125 244.253906 286.734375 244.171875 287.136719 244.085938 C 287.550781 244 287.964844 243.90625 288.378906 243.816406 C 288.390625 243.8125 288.398438 243.808594 288.410156 243.804688 C 289.25 243.621094 290.085938 243.421875 290.921875 243.214844 C 290.953125 243.207031 290.988281 243.199219 291.019531 243.191406 C 291.390625 243.097656 291.761719 243.003906 292.132812 242.90625 C 292.214844 242.886719 292.300781 242.863281 292.382812 242.84375 C 292.707031 242.757812 293.035156 242.671875 293.359375 242.582031 C 293.429688 242.566406 293.496094 242.546875 293.566406 242.527344 C 293.9375 242.429688 294.304688 242.324219 294.679688 242.21875 C 294.714844 242.207031 294.746094 242.199219 294.785156 242.191406 C 295.097656 242.101562 295.414062 242.007812 295.726562 241.917969 C 295.871094 241.875 296.019531 241.832031 296.167969 241.789062 C 296.40625 241.71875 296.644531 241.644531 296.878906 241.574219 C 297.050781 241.519531 297.226562 241.46875 297.394531 241.414062 C 297.761719 241.300781 298.132812 241.1875 298.5 241.066406 C 298.84375 240.960938 299.1875 240.847656 299.527344 240.734375 C 299.617188 240.703125 299.703125 240.675781 299.789062 240.648438 C 299.890625 242.652344 299.949219 244.664062 299.949219 246.667969 C 299.949219 261.859375 296.96875 276.597656 291.105469 290.472656 C 285.4375 303.875 277.320312 315.910156 266.984375 326.246094 C 256.644531 336.582031 244.613281 344.699219 231.207031 350.367188 C 217.335938 356.234375 202.597656 359.210938 187.402344 359.210938 C 172.207031 359.210938 157.472656 356.234375 143.597656 350.367188 C 130.195312 344.699219 118.160156 336.582031 107.824219 326.246094 C 97.484375 315.910156 89.371094 303.875 83.703125 290.472656 C 77.835938 276.597656 74.859375 261.859375 74.859375 246.667969 Z M 74.859375 246.667969 "/></g><g clip-rule="nonzero" clip-path="url(#34a2d83f1e)"><path style=" stroke:none;fill-rule:nonzero;fill:#004aad;fill-opacity:1;" d="M 0.0234375 128.324219 C 0.0234375 113.128906 3 98.386719 8.867188 84.515625 C 14.535156 71.113281 22.652344 59.078125 32.988281 48.742188 C 43.324219 38.40625 55.359375 30.289062 68.761719 24.621094 C 82.632812 18.753906 97.371094 15.777344 112.566406 15.777344 C 126.203125 15.777344 139.53125 18.1875 152.171875 22.945312 C 164.390625 27.539062 175.644531 34.191406 185.617188 42.707031 C 197.710938 53.035156 207.675781 66.070312 214.429688 80.402344 C 221.515625 95.441406 225.109375 111.5625 225.109375 128.324219 C 225.109375 128.675781 225.109375 129.027344 225.105469 129.382812 C 225.105469 129.484375 225.105469 129.585938 225.105469 129.683594 C 225.097656 129.992188 225.09375 130.296875 225.089844 130.601562 C 225.085938 130.691406 225.082031 130.785156 225.082031 130.871094 C 225.074219 131.199219 225.066406 131.523438 225.054688 131.84375 C 225.054688 131.9375 225.050781 132.03125 225.046875 132.125 C 225.035156 132.476562 225.023438 132.832031 225.007812 133.183594 L 225 133.320312 C 224.984375 133.683594 224.96875 134.042969 224.949219 134.402344 C 224.921875 134.394531 224.894531 134.386719 224.867188 134.375 C 224.449219 134.238281 224.035156 134.101562 223.617188 133.96875 C 223.265625 133.851562 222.914062 133.742188 222.558594 133.632812 C 222.382812 133.578125 222.207031 133.523438 222.035156 133.472656 C 221.726562 133.378906 221.417969 133.285156 221.109375 133.191406 C 220.746094 133.085938 220.382812 132.976562 220.015625 132.875 C 219.871094 132.832031 219.730469 132.789062 219.589844 132.753906 C 219.382812 132.695312 219.175781 132.636719 218.96875 132.578125 C 218.730469 132.511719 218.488281 132.445312 218.246094 132.382812 C 217.910156 132.289062 217.566406 132.199219 217.230469 132.113281 C 216.96875 132.042969 216.707031 131.980469 216.449219 131.914062 C 216.246094 131.859375 216.039062 131.808594 215.835938 131.761719 C 215.78125 131.746094 215.730469 131.734375 215.679688 131.71875 C 215.335938 131.636719 214.988281 131.550781 214.644531 131.472656 C 213.476562 131.199219 212.308594 130.941406 211.136719 130.703125 C 210.78125 130.628906 210.425781 130.558594 210.066406 130.488281 C 210.035156 130.480469 210.007812 130.476562 209.976562 130.472656 C 209.625 130.402344 209.28125 130.339844 208.933594 130.273438 C 208.875 130.261719 208.816406 130.25 208.757812 130.242188 C 208.421875 130.179688 208.085938 130.121094 207.75 130.0625 C 207.695312 130.050781 207.640625 130.046875 207.585938 130.035156 C 207.21875 129.96875 206.84375 129.910156 206.472656 129.847656 C 206.125 129.792969 205.773438 129.738281 205.425781 129.683594 C 205.261719 129.65625 205.097656 129.632812 204.929688 129.609375 C 204.707031 129.574219 204.480469 129.542969 204.253906 129.511719 C 204.140625 129.492188 204.03125 129.480469 203.914062 129.464844 C 203.589844 129.417969 203.261719 129.375 202.9375 129.332031 C 202.050781 129.210938 201.160156 129.105469 200.273438 129.011719 C 199.972656 128.980469 199.679688 128.949219 199.378906 128.917969 C 199.226562 128.902344 199.070312 128.886719 198.914062 128.875 C 198.597656 128.84375 198.28125 128.8125 197.960938 128.785156 C 197.625 128.753906 197.289062 128.726562 196.949219 128.699219 C 196.710938 128.679688 196.464844 128.660156 196.222656 128.644531 C 195.957031 128.625 195.691406 128.605469 195.425781 128.589844 C 195.355469 128.582031 195.285156 128.578125 195.21875 128.574219 C 194.839844 128.550781 194.464844 128.527344 194.089844 128.507812 C 194.039062 128.503906 193.992188 128.5 193.945312 128.5 C 193.574219 128.476562 193.207031 128.460938 192.835938 128.445312 C 192.757812 128.441406 192.683594 128.4375 192.609375 128.433594 C 192.253906 128.417969 191.898438 128.40625 191.542969 128.394531 C 191.449219 128.390625 191.355469 128.386719 191.261719 128.382812 C 190.933594 128.371094 190.601562 128.363281 190.265625 128.355469 C 190.179688 128.351562 190.097656 128.351562 190.011719 128.351562 C 189.585938 128.339844 189.15625 128.332031 188.730469 128.328125 C 188.289062 128.324219 187.847656 128.324219 187.402344 128.324219 C 174.585938 128.324219 162.019531 130.351562 149.988281 134.359375 L 149.980469 134.296875 L 146.410156 135.617188 L 144.339844 136.378906 L 144.339844 136.402344 C 124.363281 144.207031 106.882812 157.304688 93.691406 174.386719 C 92.972656 175.3125 92.269531 176.25 91.585938 177.199219 C 91.4375 177.398438 91.296875 177.59375 91.15625 177.792969 C 90.964844 178.054688 90.777344 178.320312 90.589844 178.585938 C 90.421875 178.824219 90.257812 179.0625 90.09375 179.300781 C 89.925781 179.542969 89.757812 179.78125 89.59375 180.027344 C 89.582031 180.039062 89.574219 180.050781 89.566406 180.066406 C 89.417969 180.28125 89.269531 180.496094 89.125 180.714844 C 88.484375 181.664062 87.859375 182.628906 87.246094 183.597656 C 87.117188 183.804688 86.984375 184.011719 86.855469 184.222656 C 86.679688 184.503906 86.503906 184.785156 86.332031 185.070312 C 86.1875 185.304688 86.042969 185.542969 85.902344 185.777344 C 85.730469 186.066406 85.558594 186.355469 85.386719 186.644531 C 85.207031 186.945312 85.035156 187.25 84.855469 187.550781 C 84.679688 187.855469 84.507812 188.160156 84.335938 188.46875 C 83.625 189.71875 82.941406 190.980469 82.28125 192.253906 C 82.132812 192.535156 81.992188 192.816406 81.847656 193.097656 C 81.6875 193.410156 81.53125 193.726562 81.375 194.039062 C 81.203125 194.382812 81.03125 194.730469 80.867188 195.078125 C 80.730469 195.359375 80.589844 195.644531 80.457031 195.925781 C 80.304688 196.242188 80.15625 196.558594 80.011719 196.875 C 79.886719 197.140625 79.765625 197.410156 79.644531 197.675781 C 79.601562 197.773438 79.554688 197.867188 79.511719 197.964844 C 79.414062 198.183594 79.3125 198.40625 79.214844 198.628906 C 79.179688 198.707031 79.144531 198.789062 79.105469 198.871094 C 78.992188 199.128906 78.878906 199.390625 78.765625 199.648438 C 78.609375 200.011719 78.453125 200.375 78.300781 200.734375 C 78.171875 201.050781 78.039062 201.367188 77.910156 201.683594 C 77.507812 202.648438 77.125 203.628906 76.75 204.609375 C 76.75 204.609375 76.746094 204.613281 76.746094 204.617188 C 76.394531 205.542969 76.054688 206.46875 75.726562 207.402344 C 75.453125 208.183594 75.1875 208.964844 74.929688 209.75 C 74.84375 210.015625 74.757812 210.28125 74.671875 210.546875 C 74.550781 210.929688 74.425781 211.316406 74.308594 211.707031 C 74.222656 211.988281 74.136719 212.269531 74.050781 212.550781 C 73.953125 212.871094 73.863281 213.1875 73.769531 213.507812 C 73.757812 213.539062 73.75 213.574219 73.738281 213.605469 C 73.648438 213.925781 73.558594 214.246094 73.464844 214.570312 C 73.371094 214.902344 73.277344 215.242188 73.183594 215.578125 L 73.183594 215.582031 C 73.113281 215.851562 73.039062 216.121094 72.96875 216.390625 C 72.859375 216.796875 72.753906 217.203125 72.652344 217.613281 C 72.585938 217.882812 72.519531 218.152344 72.449219 218.425781 C 72.332031 218.910156 72.21875 219.390625 72.105469 219.871094 C 71.988281 220.371094 71.878906 220.875 71.769531 221.375 C 71.71875 221.605469 71.671875 221.832031 71.625 222.058594 C 71.5 222.628906 71.382812 223.203125 71.273438 223.773438 C 71.203125 224.117188 71.136719 224.460938 71.074219 224.808594 C 70.996094 225.238281 70.917969 225.667969 70.839844 226.097656 C 70.800781 226.335938 70.757812 226.570312 70.71875 226.804688 C 70.707031 226.867188 70.699219 226.929688 70.6875 226.992188 C 70.636719 227.304688 70.585938 227.617188 70.535156 227.925781 C 70.480469 228.273438 70.425781 228.621094 70.375 228.96875 C 70.328125 229.273438 70.285156 229.578125 70.242188 229.882812 C 70.226562 229.980469 70.210938 230.074219 70.203125 230.171875 C 70.167969 230.421875 70.128906 230.667969 70.097656 230.917969 C 70.085938 230.996094 70.078125 231.078125 70.070312 231.15625 C 70.03125 231.4375 69.992188 231.714844 69.960938 231.996094 C 69.953125 232.0625 69.945312 232.128906 69.9375 232.199219 C 69.921875 232.296875 69.910156 232.394531 69.898438 232.492188 C 60.605469 228.6875 51.859375 223.640625 43.863281 217.464844 C 34.957031 210.589844 27.144531 202.449219 20.644531 193.269531 C 7.152344 174.210938 0.0234375 151.753906 0.0234375 128.324219 Z M 0.0234375 128.324219 "/></g></g></svg>